<?xml version="1.0" encoding="UTF-8" standalone="no"?>
<svg
   xmlns:osb="http://www.openswatchbook.org/uri/2009/osb"
   xmlns:dc="http://purl.org/dc/elements/1.1/"
   xmlns:cc="http://creativecommons.org/ns#"
   xmlns:rdf="http://www.w3.org/1999/02/22-rdf-syntax-ns#"
   xmlns:svg="http://www.w3.org/2000/svg"
   xmlns="http://www.w3.org/2000/svg"
   xmlns:xlink="http://www.w3.org/1999/xlink"
   xmlns:sodipodi="http://sodipodi.sourceforge.net/DTD/sodipodi-0.dtd"
   xmlns:inkscape="http://www.inkscape.org/namespaces/inkscape"
   id="svg8"
   version="1.1"
   viewBox="0 0 31.003094 41.58643"
   height="41.58643mm"
   width="31.003094mm"
   sodipodi:docname="unfinished-unlinked-tbc-page.svg"
   inkscape:version="0.92.3 (2405546, 2018-03-11)">
  <sodipodi:namedview
     pagecolor="#ffffff"
     bordercolor="#666666"
     borderopacity="1"
     objecttolerance="10"
     gridtolerance="10"
     guidetolerance="10"
     inkscape:pageopacity="0"
     inkscape:pageshadow="2"
     inkscape:window-width="1920"
     inkscape:window-height="1017"
     id="namedview833"
     showgrid="false"
     inkscape:zoom="2.6975947"
     inkscape:cx="-4.61593"
     inkscape:cy="78.588528"
     inkscape:window-x="-8"
     inkscape:window-y="-8"
     inkscape:window-maximized="1"
     inkscape:current-layer="svg8" />
  <defs
     id="defs2">
    <linearGradient
       inkscape:collect="always"
       id="linearGradient11582">
      <stop
         style="stop-color:#c14aae;stop-opacity:1;"
         offset="0"
         id="stop11578" />
      <stop
         style="stop-color:#c14aae;stop-opacity:0;"
         offset="1"
         id="stop11580" />
    </linearGradient>
    <linearGradient
       osb:paint="solid"
       id="linearGradient4522">
      <stop
         id="stop4520"
         offset="0"
         style="stop-color:#000000;stop-opacity:1;" />
    </linearGradient>
    <linearGradient
       gradientUnits="userSpaceOnUse"
       y2="43.000004"
       x2="67.279762"
       y1="43.000004"
       x1="37.041668"
       id="linearGradient4524"
       xlink:href="#linearGradient4522" />
    <linearGradient
       inkscape:collect="always"
       xlink:href="#linearGradient11582"
       id="linearGradient11584"
       x1="36.659168"
       y1="43.000002"
       x2="67.662262"
       y2="43.000002"
       gradientUnits="userSpaceOnUse" />
  </defs>
  <metadata
     id="metadata5">
    <rdf:RDF>
      <cc:Work
         rdf:about="">
        <dc:format>image/svg+xml</dc:format>
        <dc:type
           rdf:resource="http://purl.org/dc/dcmitype/StillImage" />
        <dc:title></dc:title>
      </cc:Work>
    </rdf:RDF>
  </metadata>
  <g
     transform="translate(-36.659168,-22.206787)"
     id="layer1"
     style="fill:url(#linearGradient11584);fill-opacity:1;stroke:#993ba5;stroke-opacity:1">
    <rect
       y="22.589287"
       x="37.041668"
       height="40.82143"
       width="30.238094"
       id="rect4518"
       style="fill:url(#linearGradient11584);fill-opacity:1;stroke:#993ba5;stroke-width:0.76499999;stroke-miterlimit:4;stroke-dasharray:none;stroke-opacity:1" />
  </g>
  <path
     sodipodi:type="star"
     style="opacity:1;fill:#c14aae;fill-opacity:0;stroke:#993ba5;stroke-width:11.00022793;stroke-linejoin:round;stroke-miterlimit:4;stroke-dasharray:none;stroke-dashoffset:0;stroke-opacity:1"
     id="path878"
     sodipodi:sides="8"
     sodipodi:cx="102.21943"
     sodipodi:cy="129.01271"
     sodipodi:r1="115.46538"
     sodipodi:r2="56.578037"
     sodipodi:arg1="0.79465716"
     sodipodi:arg2="1.1873562"
     inkscape:flatsided="false"
     inkscape:rounded="0"
     inkscape:randomized="0"
     d="M 183.10633,211.41151 123.38601,181.48223 101.15035,244.47314 80.084909,181.08129 19.820625,209.89961 49.749912,150.17929 -13.240999,127.94363 50.150846,106.87819 21.33253,46.613906 l 59.72032,29.929287 22.23566,-62.990911 21.06544,63.391846 60.26428,-28.818317 -29.92928,59.720319 62.99091,22.23566 -63.39185,21.06544 z"
     transform="matrix(0.09637705,0,0,0.10588796,5.6452236,1.6397716)" />
  <path
     style="opacity:1;fill:#f5e682;fill-opacity:1;stroke:#993ba5;stroke-width:0.71543336;stroke-linejoin:round;stroke-miterlimit:4;stroke-dasharray:none;stroke-dashoffset:0;stroke-opacity:1"
     d="m 11.164707,38.505835 a 8.629412,4.3792978 1.6799678 0 1 -8.4577936,-4.648997 8.629412,4.3792978 1.6799678 0 1 8.7922776,-4.103517 8.629412,4.3792978 1.6799678 0 1 3.67778,0.544374 8.629412,4.3792978 1.6799678 0 1 4.65198,-0.537498 8.629412,4.3792978 1.6799678 0 1 8.457798,4.648924 8.629412,4.3792978 1.6799678 0 1 -1.399751,2.26824 l -2.962061,-1.65699 a 4.7549601,1.60219 1.762587 0 0 0.583223,-0.730721 4.7549601,1.60219 1.762587 0 0 -4.691407,-1.751335 4.7549601,1.60219 1.762587 0 0 -0.602192,-0.0045 8.629412,4.3792978 1.6799678 0 1 0.742428,1.86843 8.629412,4.3792978 1.6799678 0 1 -0.471805,1.329115 4.7549601,1.60219 1.762587 0 0 0.209195,0.0091 4.7549601,1.60219 1.762587 0 0 1.815967,-0.06429 l -0.01428,2.775568 a 8.629412,4.3792978 1.6799678 0 1 -2.001608,0.06098 8.629412,4.3792978 1.6799678 0 1 -3.677697,-0.544444 8.629412,4.3792978 1.6799678 0 1 -4.652065,0.537566 z m 0.199911,-2.772256 a 4.7549601,1.60219 1.762587 0 0 0.420694,0.0062 8.629412,4.3792978 1.6799678 0 1 -0.74864,-1.87608 8.629412,4.3792978 1.6799678 0 1 0.47349,-1.331251 4.7549601,1.60219 1.762587 0 0 -0.02317,-0.001 4.7549601,1.60219 1.762587 0 0 -4.8136993,1.450808 4.7549601,1.60219 1.762587 0 0 4.6913253,1.751333 z m 4.401233,-0.83362 a 4.7549601,1.60219 1.762587 0 0 0.412552,-0.617185 4.7549601,1.60219 1.762587 0 0 -0.762799,-0.910836 4.7549601,1.60219 1.762587 0 0 -0.412553,0.617185 4.7549601,1.60219 1.762587 0 0 0.7628,0.910836 z"
     id="path833"
     inkscape:connector-curvature="0" />
</svg>
