<?xml version="1.0" encoding="UTF-8" standalone="no"?>
<svg
   xmlns:osb="http://www.openswatchbook.org/uri/2009/osb"
   xmlns:dc="http://purl.org/dc/elements/1.1/"
   xmlns:cc="http://creativecommons.org/ns#"
   xmlns:rdf="http://www.w3.org/1999/02/22-rdf-syntax-ns#"
   xmlns:svg="http://www.w3.org/2000/svg"
   xmlns="http://www.w3.org/2000/svg"
   xmlns:xlink="http://www.w3.org/1999/xlink"
   xmlns:sodipodi="http://sodipodi.sourceforge.net/DTD/sodipodi-0.dtd"
   xmlns:inkscape="http://www.inkscape.org/namespaces/inkscape"
   id="svg8"
   version="1.1"
   viewBox="0 0 31.003094 41.58643"
   height="41.58643mm"
   width="31.003094mm"
   sodipodi:docname="unlinked-page.svg"
   inkscape:version="0.92.3 (2405546, 2018-03-11)">
  <sodipodi:namedview
     pagecolor="#ffffff"
     bordercolor="#666666"
     borderopacity="1"
     objecttolerance="10"
     gridtolerance="10"
     guidetolerance="10"
     inkscape:pageopacity="0"
     inkscape:pageshadow="2"
     inkscape:window-width="1920"
     inkscape:window-height="1017"
     id="namedview833"
     showgrid="false"
     inkscape:zoom="2.6975947"
     inkscape:cx="-4.61593"
     inkscape:cy="78.588528"
     inkscape:window-x="-8"
     inkscape:window-y="-8"
     inkscape:window-maximized="1"
     inkscape:current-layer="svg8" />
  <defs
     id="defs2">
    <linearGradient
       osb:paint="solid"
       id="linearGradient4522">
      <stop
         id="stop4520"
         offset="0"
         style="stop-color:#000000;stop-opacity:1;" />
    </linearGradient>
    <linearGradient
       gradientUnits="userSpaceOnUse"
       y2="43.000004"
       x2="67.279762"
       y1="43.000004"
       x1="37.041668"
       id="linearGradient4524"
       xlink:href="#linearGradient4522" />
  </defs>
  <metadata
     id="metadata5">
    <rdf:RDF>
      <cc:Work
         rdf:about="">
        <dc:format>image/svg+xml</dc:format>
        <dc:type
           rdf:resource="http://purl.org/dc/dcmitype/StillImage" />
        <dc:title></dc:title>
      </cc:Work>
    </rdf:RDF>
  </metadata>
  <g
     transform="translate(-36.659168,-22.206787)"
     id="layer1"
     style="stroke:#66917f;stroke-opacity:1">
    <rect
       y="22.589287"
       x="37.041668"
       height="40.82143"
       width="30.238094"
       id="rect4518"
       style="fill:#afe3c0;fill-opacity:1;stroke:#66917f;stroke-width:0.76499999;stroke-miterlimit:4;stroke-dasharray:none;stroke-opacity:1" />
  </g>
  <path
     style="opacity:1;fill:#f5e682;fill-opacity:1;stroke:#66917f;stroke-width:1;stroke-linejoin:round;stroke-miterlimit:4;stroke-dasharray:none;stroke-dashoffset:0;stroke-opacity:1"
     d="M 15.42962,3.3943671 A 7.1148079,10.73043 0 0 0 8.3147692,14.124797 7.1148079,10.73043 0 0 0 9.868146,20.800047 7.1148079,10.73043 0 0 0 8.3305473,27.46163 7.1148079,10.73043 0 0 0 15.4454,38.192061 7.1148079,10.73043 0 0 0 22.560252,27.46163 a 7.1148079,10.73043 0 0 0 -1.553379,-6.675164 7.1148079,10.73043 0 0 0 1.488198,-5.51301 h -3.869465 a 3.2658136,5.9477243 0 0 1 -0.53546,2.231931 7.1148079,10.73043 0 0 0 -2.644746,-0.774186 7.1148079,10.73043 0 0 0 -2.667803,0.790446 3.2658136,5.9477243 0 0 1 -0.613815,-3.458216 3.2658136,5.9477243 0 0 1 3.265838,-5.9476753 3.2658136,5.9477243 0 0 1 2.622765,2.4177833 L 20.475321,6.584407 A 7.1148079,10.73043 0 0 0 15.42962,3.3943671 Z m 2.707478,20.6486159 a 3.2658136,5.9477243 0 0 1 0.574138,3.357284 3.2658136,5.9477243 0 0 1 -3.265836,5.94776 3.2658136,5.9477243 0 0 1 -3.265763,-5.94776 3.2658136,5.9477243 0 0 1 0.566097,-3.345632 7.1148079,10.73043 0 0 0 2.683886,0.800593 7.1148079,10.73043 0 0 0 2.707478,-0.812245 z"
     id="path3133"
     inkscape:connector-curvature="0" />
</svg>
