<?xml version="1.0" encoding="UTF-8" standalone="no"?>
<!-- Created with Inkscape (http://www.inkscape.org/) -->

<svg
   xmlns:dc="http://purl.org/dc/elements/1.1/"
   xmlns:cc="http://creativecommons.org/ns#"
   xmlns:rdf="http://www.w3.org/1999/02/22-rdf-syntax-ns#"
   xmlns:svg="http://www.w3.org/2000/svg"
   xmlns="http://www.w3.org/2000/svg"
   xmlns:sodipodi="http://sodipodi.sourceforge.net/DTD/sodipodi-0.dtd"
   xmlns:inkscape="http://www.inkscape.org/namespaces/inkscape"
   width="189.41232mm"
   height="234.76947mm"
   viewBox="0 0 189.41232 234.76947"
   version="1.1"
   id="svg8"
   sodipodi:docname="unlinked-page.svg"
   inkscape:version="0.92.3 (2405546, 2018-03-11)">
  <defs
     id="defs2" />
  <sodipodi:namedview
     id="base"
     pagecolor="#ffffff"
     bordercolor="#666666"
     borderopacity="1.0"
     inkscape:pageopacity="0.0"
     inkscape:pageshadow="2"
     inkscape:zoom="0.35"
     inkscape:cx="-552.6823"
     inkscape:cy="135.88913"
     inkscape:document-units="mm"
     inkscape:current-layer="layer1"
     showgrid="false"
     inkscape:window-width="1920"
     inkscape:window-height="1017"
     inkscape:window-x="-8"
     inkscape:window-y="-8"
     inkscape:window-maximized="1" />
  <metadata
     id="metadata5">
    <rdf:RDF>
      <cc:Work
         rdf:about="">
        <dc:format>image/svg+xml</dc:format>
        <dc:type
           rdf:resource="http://purl.org/dc/dcmitype/StillImage" />
        <dc:title />
      </cc:Work>
    </rdf:RDF>
  </metadata>
  <g
     inkscape:label="Layer 1"
     inkscape:groupmode="layer"
     id="layer1"
     transform="translate(-9.2372859,-12.927762)">
    <rect
       style="opacity:1;fill:#afe3c0;fill-opacity:1;stroke:#66917f;stroke-width:4.204;stroke-linejoin:round;stroke-miterlimit:4;stroke-dasharray:none;stroke-dashoffset:0;stroke-opacity:1"
       id="rect815"
       width="185.20833"
       height="230.56548"
       x="11.868452"
       y="15.029762" />
    <path
       style="opacity:1;fill:#f5e682;fill-opacity:1;stroke:#66917f;stroke-width:4.204;stroke-linejoin:round;stroke-miterlimit:4;stroke-dasharray:none;stroke-dashoffset:0;stroke-opacity:1"
       d="m 77.087785,146.50782 a 55.562499,30.994048 1.9908255 0 1 -54.452229,-32.90599 55.562499,30.994048 1.9908255 0 1 56.605675,-29.045052 55.562499,30.994048 1.9908255 0 1 23.677959,3.853126 55.562499,30.994048 1.9908255 0 1 29.94997,-3.80445 55.562499,30.994048 1.9908255 0 1 54.45225,32.905476 55.562499,30.994048 1.9908255 0 1 -9.01175,16.05481 l -19.07008,-11.72833 a 30.616072,11.339287 1.9908255 0 0 3.75485,-5.1721 30.616072,11.339287 1.9908255 0 0 -30.20381,-12.3961 30.616072,11.339287 1.9908255 0 0 -3.87697,-0.0319 55.562499,30.994048 1.9908255 0 1 4.77983,13.22491 55.562499,30.994048 1.9908255 0 1 -3.03753,9.40759 30.616072,11.339287 1.9908255 0 0 1.34682,0.0644 30.616072,11.339287 1.9908255 0 0 11.6914,-0.45505 l -0.0919,19.64571 a 55.562499,30.994048 1.9908255 0 1 -12.88658,0.4316 55.562499,30.994048 1.9908255 0 1 -23.67742,-3.85362 55.562499,30.994048 1.9908255 0 1 -29.950516,3.80494 z m 1.287059,-19.62226 a 30.616072,11.339287 1.9908255 0 0 2.708468,0.044 55.562499,30.994048 1.9908255 0 1 -4.819834,-13.27904 55.562499,30.994048 1.9908255 0 1 3.048393,-9.42272 30.616072,11.339287 1.9908255 0 0 -0.149184,-0.007 30.616072,11.339287 1.9908255 0 0 -30.991146,10.26894 30.616072,11.339287 1.9908255 0 0 30.203299,12.39609 z m 28.335616,-5.90043 a 30.616072,11.339287 1.9908255 0 0 2.65606,-4.36849 30.616072,11.339287 1.9908255 0 0 -4.91099,-6.44698 30.616072,11.339287 1.9908255 0 0 -2.65606,4.36849 30.616072,11.339287 1.9908255 0 0 4.91099,6.44698 z"
       id="path833"
       inkscape:connector-curvature="0" />
  </g>
</svg>
