<?xml version="1.0" encoding="UTF-8" standalone="no"?>
<!-- Created with Inkscape (http://www.inkscape.org/) -->

<svg
   xmlns:osb="http://www.openswatchbook.org/uri/2009/osb"
   xmlns:dc="http://purl.org/dc/elements/1.1/"
   xmlns:cc="http://creativecommons.org/ns#"
   xmlns:rdf="http://www.w3.org/1999/02/22-rdf-syntax-ns#"
   xmlns:svg="http://www.w3.org/2000/svg"
   xmlns="http://www.w3.org/2000/svg"
   xmlns:sodipodi="http://sodipodi.sourceforge.net/DTD/sodipodi-0.dtd"
   xmlns:inkscape="http://www.inkscape.org/namespaces/inkscape"
   width="196.49136mm"
   height="195.56061mm"
   viewBox="0 0 196.49136 195.56061"
   version="1.1"
   id="svg8"
   sodipodi:docname="unlinked-start-page.svg"
   inkscape:version="0.92.3 (2405546, 2018-03-11)">
  <defs
     id="defs2">
    <linearGradient
       id="linearGradient2281"
       osb:paint="solid">
      <stop
         style="stop-color:#afe3c0;stop-opacity:1;"
         offset="0"
         id="stop2279" />
    </linearGradient>
  </defs>
  <sodipodi:namedview
     id="base"
     pagecolor="#ffffff"
     bordercolor="#666666"
     borderopacity="1.0"
     inkscape:pageopacity="0.0"
     inkscape:pageshadow="2"
     inkscape:zoom="0.35"
     inkscape:cx="-1073.6947"
     inkscape:cy="616.0037"
     inkscape:document-units="mm"
     inkscape:current-layer="layer1"
     showgrid="false"
     inkscape:window-width="1920"
     inkscape:window-height="1017"
     inkscape:window-x="-8"
     inkscape:window-y="-8"
     inkscape:window-maximized="1" />
  <metadata
     id="metadata5">
    <rdf:RDF>
      <cc:Work
         rdf:about="">
        <dc:format>image/svg+xml</dc:format>
        <dc:type
           rdf:resource="http://purl.org/dc/dcmitype/StillImage" />
        <dc:title></dc:title>
      </cc:Work>
    </rdf:RDF>
  </metadata>
  <g
     inkscape:label="Layer 1"
     inkscape:groupmode="layer"
     id="layer1"
     transform="translate(-6.1033512,-27.97646)">
    <path
       sodipodi:type="star"
       style="opacity:1;fill:#f5e682;fill-opacity:1;stroke:#66917f;stroke-width:6.08159637;stroke-linejoin:round;stroke-miterlimit:4;stroke-dasharray:none;stroke-dashoffset:0;stroke-opacity:1"
       id="path2369"
       sodipodi:sides="4"
       sodipodi:cx="105.24324"
       sodipodi:cy="119.18533"
       sodipodi:r1="87.703514"
       sodipodi:r2="42.974716"
       sodipodi:arg1="-0.017239671"
       sodipodi:arg2="0.76815849"
       inkscape:flatsided="false"
       inkscape:rounded="0"
       inkscape:randomized="0"
       d="M 192.93372,117.67343 136.15029,149.04468 106.75515,206.87581 75.383891,150.09238 17.552759,120.69724 74.336194,89.325984 103.73134,31.494852 135.10259,88.278287 Z"
       transform="matrix(0.69282433,0.01088375,-0.01083218,0.68954077,29.942598,9.2767806)" />
    <path
       style="opacity:1;fill:#f5e682;fill-opacity:1;stroke:#66917f;stroke-width:4.204;stroke-linejoin:round;stroke-miterlimit:4;stroke-dasharray:none;stroke-dashoffset:0;stroke-opacity:1"
       d="m 74.77456,219.12342 a 55.5625,30.994048 1.9908255 0 1 -54.452233,-32.90601 55.5625,30.994048 1.9908255 0 1 56.605679,-29.04505 55.5625,30.994048 1.9908255 0 1 23.677904,3.85313 55.5625,30.994048 1.9908255 0 1 29.94999,-3.80445 55.5625,30.994048 1.9908255 0 1 54.45224,32.90547 55.5625,30.994048 1.9908255 0 1 -9.01175,16.05481 l -19.07008,-11.72833 a 30.616073,11.339287 1.9908255 0 0 3.75485,-5.1721 30.616073,11.339287 1.9908255 0 0 -30.2038,-12.3961 30.616073,11.339287 1.9908255 0 0 -3.87697,-0.0319 55.5625,30.994048 1.9908255 0 1 4.77983,13.22491 55.5625,30.994048 1.9908255 0 1 -3.03753,9.40759 30.616073,11.339287 1.9908255 0 0 1.34682,0.0644 30.616073,11.339287 1.9908255 0 0 11.6914,-0.45505 l -0.0919,19.64572 a 55.5625,30.994048 1.9908255 0 1 -12.88658,0.4316 55.5625,30.994048 1.9908255 0 1 -23.67744,-3.85362 55.5625,30.994048 1.9908255 0 1 -29.950462,3.80494 z m 1.287055,-19.62228 a 30.616073,11.339287 1.9908255 0 0 2.708468,0.044 55.5625,30.994048 1.9908255 0 1 -4.81983,-13.27904 55.5625,30.994048 1.9908255 0 1 3.048389,-9.42272 30.616073,11.339287 1.9908255 0 0 -0.14918,-0.007 30.616073,11.339287 1.9908255 0 0 -30.991149,10.26894 30.616073,11.339287 1.9908255 0 0 30.203302,12.39609 z m 28.335575,-5.90043 a 30.616073,11.339287 1.9908255 0 0 2.65607,-4.36849 30.616073,11.339287 1.9908255 0 0 -4.91101,-6.44698 30.616073,11.339287 1.9908255 0 0 -2.656067,4.36849 30.616073,11.339287 1.9908255 0 0 4.911007,6.44698 z"
       id="path833"
       inkscape:connector-curvature="0" />
  </g>
</svg>
